# This file uses centimeters as units for non-parametric coordinates.

mtllib backrotor.mtl
g default1
v 0.001029 0.102277 0.053841
v 0.000700 0.064644 0.104223
v -0.001807 0.102277 0.053841
v -0.001478 0.064644 0.104223
v -0.001284 0.308279 0.218808
v -0.001580 0.271029 0.268679
v 0.000506 0.308279 0.218808
v 0.000802 0.271029 0.268679
v 0.002608 0.072931 0.093129
v -0.003386 0.072931 0.093129
v -0.003386 0.281453 0.254722
v 0.002608 0.281453 0.254722
v 0.002608 0.095137 0.063400
v -0.003386 0.095137 0.063400
v -0.003386 0.297594 0.233114
v 0.002608 0.297594 0.233114
v -0.000969 0.052703 0.021968
v -0.000969 0.048937 0.027012
v 0.000191 0.052703 0.021968
v 0.000191 0.048937 0.027012
v 0.000191 0.036913 0.041631
v 0.000191 0.032541 0.047484
v -0.000969 0.032541 0.047484
v -0.000969 0.036913 0.041631
v -0.008278 0.036863 0.062788
v 0.007500 0.036863 0.062788
v -0.008278 0.066732 0.026959
v 0.007500 0.066732 0.026959
v -0.008278 0.012070 -0.003690
v 0.007500 0.012070 -0.003690
v -0.008278 -0.003123 0.014536
v 0.007500 -0.003123 0.014536
v 0.001029 -0.062646 0.107942
v 0.000700 -0.113028 0.070310
v -0.001807 -0.062646 0.107942
v -0.001478 -0.113028 0.070310
v -0.001284 -0.227612 0.313945
v -0.001580 -0.277483 0.276694
v 0.000506 -0.227612 0.313945
v 0.000802 -0.277483 0.276694
v 0.002608 -0.101933 0.078596
v -0.003386 -0.101933 0.078596
v -0.003386 -0.263527 0.287119
v 0.002608 -0.263527 0.287119
v 0.002608 -0.072204 0.100802
v -0.003386 -0.072204 0.100802
v -0.003386 -0.241918 0.303259
v 0.002608 -0.241918 0.303259
v -0.000969 -0.030773 0.058369
v -0.000969 -0.035816 0.054602
v 0.000191 -0.030773 0.058369
v 0.000191 -0.035816 0.054602
v 0.000191 -0.050435 0.042578
v 0.000191 -0.056288 0.038206
v -0.000969 -0.056288 0.038206
v -0.000969 -0.050435 0.042578
v -0.008278 -0.071592 0.042529
v 0.007500 -0.071592 0.042529
v -0.008278 -0.035763 0.072397
v 0.007500 -0.035763 0.072397
v -0.008278 -0.005114 0.017735
v 0.007500 -0.005114 0.017735
v -0.008278 -0.023340 0.002542
v 0.007500 -0.023340 0.002542
v 0.001029 -0.116746 -0.056980
v 0.000700 -0.079114 -0.107363
v -0.001807 -0.116746 -0.056980
v -0.001478 -0.079114 -0.107363
v -0.001284 -0.322749 -0.221947
v -0.001580 -0.285498 -0.271818
v 0.000506 -0.322749 -0.221947
v 0.000802 -0.285498 -0.271818
v 0.002608 -0.087401 -0.096267
v -0.003386 -0.087401 -0.096267
v -0.003386 -0.295923 -0.257863
v 0.002608 -0.295923 -0.257863
v 0.002608 -0.109607 -0.066540
v -0.003386 -0.109607 -0.066540
v -0.003386 -0.312063 -0.236253
v 0.002608 -0.312063 -0.236253
v -0.000969 -0.067173 -0.025108
v -0.000969 -0.063406 -0.030151
v 0.000191 -0.067173 -0.025108
v 0.000191 -0.063406 -0.030151
v 0.000191 -0.051383 -0.044770
v 0.000191 -0.047010 -0.050623
v -0.000969 -0.047010 -0.050623
v -0.000969 -0.051383 -0.044770
v -0.008278 -0.051333 -0.065928
v 0.007500 -0.051333 -0.065928
v -0.008278 -0.081202 -0.030097
v 0.007500 -0.081202 -0.030097
v -0.008278 -0.026540 0.000551
v 0.007500 -0.026540 0.000551
v -0.008278 -0.011347 -0.017674
v 0.007500 -0.011347 -0.017674
v 0.001029 0.048176 -0.111081
v 0.000700 0.098558 -0.073448
v -0.001807 0.048176 -0.111081
v -0.001478 0.098558 -0.073448
v -0.001284 0.213143 -0.317083
v -0.001580 0.263014 -0.279834
v 0.000506 0.213143 -0.317083
v 0.000802 0.263014 -0.279834
v 0.002608 0.087463 -0.081735
v -0.003386 0.087463 -0.081735
v -0.003386 0.249058 -0.290257
v 0.002608 0.249058 -0.290257
v 0.002608 0.057735 -0.103941
v -0.003386 0.057735 -0.103941
v -0.003386 0.227448 -0.306398
v 0.002608 0.227448 -0.306398
v -0.000969 0.016304 -0.061507
v -0.000969 0.021347 -0.057742
v 0.000191 0.016304 -0.061507
v 0.000191 0.021347 -0.057742
v 0.000191 0.035965 -0.045717
v 0.000191 0.041818 -0.041345
v -0.000969 0.041818 -0.041345
v -0.000969 0.035965 -0.045717
v -0.008278 0.057123 -0.045668
v 0.007500 0.057123 -0.045668
v -0.008278 0.021293 -0.075536
v 0.007500 0.021293 -0.075536
v -0.008278 -0.009356 -0.020875
v 0.007500 -0.009356 -0.020875
v -0.008278 0.008870 -0.005682
v 0.007500 0.008870 -0.005682
vt 0.454707 0.589017
vt 0.462701 0.594985
vt 0.462701 0.594985
vt 0.454707 0.589017
vt 0.431540 0.569962
vt 0.422265 0.563034
vt 0.422265 0.563034
vt 0.431540 0.569962
vt 0.412191 0.673545
vt 0.397043 0.662230
vt 0.128094 0.983067
vt 0.150765 1.000000
vt 0.128094 0.983067
vt 0.150765 1.000000
vt 0.397043 0.662230
vt 0.412191 0.673545
vt 0.332350 0.613908
vt 0.071734 0.940969
vt 0.071734 0.940969
vt 0.332350 0.613908
vt 0.093852 0.957488
vt 0.349931 0.627040
vt 0.093852 0.957488
vt 0.349931 0.627040
vt 0.398012 0.569883
vt 0.398012 0.569883
vt 0.454791 0.617217
vt 0.454791 0.617217
vt 0.503361 0.530593
vt 0.503361 0.530593
vt 0.474478 0.506516
vt 0.474478 0.506516
vt 0.410985 0.454707
vt 0.405015 0.462699
vt 0.405015 0.462699
vt 0.410985 0.454707
vt 0.430040 0.431540
vt 0.436968 0.422265
vt 0.436968 0.422265
vt 0.430040 0.431540
vt 0.326456 0.412189
vt 0.337771 0.397043
vt 0.016934 0.128094
vt 0.000000 0.150765
vt 0.016934 0.128094
vt 0.000000 0.150765
vt 0.337771 0.397043
vt 0.326456 0.412189
vt 0.386092 0.332348
vt 0.059032 0.071734
vt 0.059032 0.071734
vt 0.386092 0.332348
vt 0.042512 0.093850
vt 0.372961 0.349931
vt 0.042512 0.093850
vt 0.372961 0.349931
vt 0.430117 0.398012
vt 0.430117 0.398012
vt 0.382785 0.454791
vt 0.382785 0.454791
vt 0.469409 0.503361
vt 0.469409 0.503361
vt 0.493485 0.474478
vt 0.493485 0.474478
vt 0.545294 0.410985
vt 0.537303 0.405015
vt 0.537303 0.405015
vt 0.545294 0.410985
vt 0.568461 0.430038
vt 0.577737 0.436968
vt 0.577737 0.436968
vt 0.568461 0.430038
vt 0.587811 0.326456
vt 0.602961 0.337770
vt 0.871907 0.016934
vt 0.849236 0.000000
vt 0.871907 0.016934
vt 0.849236 0.000000
vt 0.602961 0.337770
vt 0.587811 0.326456
vt 0.667653 0.386092
vt 0.928268 0.059032
vt 0.928268 0.059032
vt 0.667653 0.386092
vt 0.906153 0.042512
vt 0.650069 0.372960
vt 0.906153 0.042512
vt 0.650069 0.372960
vt 0.601991 0.430117
vt 0.601991 0.430117
vt 0.545209 0.382783
vt 0.545209 0.382783
vt 0.496640 0.469407
vt 0.496640 0.469407
vt 0.525522 0.493484
vt 0.525522 0.493484
vt 0.589018 0.545294
vt 0.594985 0.537303
vt 0.594985 0.537303
vt 0.589018 0.545294
vt 0.569962 0.568460
vt 0.563034 0.577735
vt 0.563034 0.577735
vt 0.569962 0.568460
vt 0.673545 0.587811
vt 0.662230 0.602959
vt 0.983067 0.871906
vt 1.000000 0.849236
vt 0.983067 0.871906
vt 1.000000 0.849236
vt 0.662230 0.602959
vt 0.673545 0.587811
vt 0.613908 0.667652
vt 0.940971 0.928268
vt 0.940971 0.928268
vt 0.613908 0.667652
vt 0.957488 0.906152
vt 0.627040 0.650069
vt 0.957488 0.906152
vt 0.627040 0.650069
vt 0.569884 0.601989
vt 0.569884 0.601989
vt 0.617217 0.545209
vt 0.617217 0.545209
vt 0.530595 0.496639
vt 0.530595 0.496639
vt 0.506518 0.525522
vt 0.506518 0.525522
vn -0.000049 -0.784590 -0.620016
vn -0.000049 -0.784590 -0.620016
vn -0.000049 -0.784590 -0.620016
vn -0.000049 -0.784590 -0.620016
vn -0.000049 -0.784590 -0.620016
vn -0.000049 -0.784590 -0.620016
vn -0.000049 -0.784590 -0.620016
vn -0.000049 -0.784590 -0.620016
vn -0.994459 0.053318 -0.090603
vn -0.998495 0.018634 -0.051582
vn -0.992428 0.078603 -0.094379
vn -0.992428 0.078603 -0.094379
vn 0.000000 0.801174 0.598432
vn 0.000000 0.801174 0.598432
vn 0.000000 0.801174 0.598432
vn 0.000000 0.801174 0.598432
vn 0.992428 0.078603 -0.094379
vn 0.992428 0.078603 -0.094379
vn 0.998495 0.018634 -0.051582
vn 0.994459 0.053318 -0.090603
vn 0.000000 -0.760678 0.649130
vn 0.000000 -0.623187 0.782073
vn 0.000000 -0.623187 0.782073
vn 0.000000 -0.760678 0.649130
vn 0.000000 0.625076 -0.780564
vn 0.000000 0.583725 -0.811951
vn 0.000000 0.583725 -0.811951
vn 0.000000 0.625076 -0.780564
vn -0.993012 -0.073071 0.092675
vn -0.998324 -0.051619 0.026155
vn -0.994106 -0.087010 0.064673
vn -0.993012 -0.073071 0.092675
vn 0.000000 0.801174 0.598431
vn 0.000000 0.801174 0.598431
vn 0.000000 0.801174 0.598431
vn 0.000000 0.801174 0.598431
vn 0.998324 -0.051620 0.026155
vn 0.993012 -0.073071 0.092675
vn 0.993012 -0.073071 0.092675
vn 0.994106 -0.087010 0.064673
vn -1.000000 0.000000 0.000000
vn -0.998495 0.018634 -0.051582
vn -0.998324 -0.051619 0.026155
vn -1.000000 0.000000 0.000000
vn 0.000000 0.801178 0.598427
vn 0.000000 0.801178 0.598427
vn 0.000000 0.801178 0.598427
vn 0.000000 0.801178 0.598427
vn 0.998495 0.018634 -0.051582
vn 1.000000 -0.000000 0.000000
vn 1.000000 -0.000000 0.000000
vn 0.998324 -0.051620 0.026155
vn -0.998495 0.018634 -0.051582
vn -0.994459 0.053318 -0.090603
vn -0.995835 0.027998 -0.086769
vn -0.998437 -0.002097 -0.055859
vn 0.000000 0.583725 -0.811951
vn 0.000000 0.583725 -0.811951
vn 0.000000 0.540802 -0.841150
vn 0.000000 0.540802 -0.841150
vn 0.994459 0.053318 -0.090603
vn 0.998495 0.018634 -0.051582
vn 0.998437 -0.002097 -0.055859
vn 0.995835 0.027998 -0.086769
vn 0.998495 0.018634 -0.051582
vn 0.998324 -0.051620 0.026155
vn 0.997763 -0.066596 0.005888
vn 0.998437 -0.002097 -0.055859
vn 0.998324 -0.051620 0.026155
vn 0.994106 -0.087010 0.064673
vn 0.994227 -0.100863 0.036608
vn 0.997763 -0.066596 0.005888
vn 0.000000 -0.760678 0.649130
vn 0.000000 -0.760678 0.649130
vn 0.000000 -0.870344 0.492444
vn 0.000000 -0.870344 0.492444
vn -0.994106 -0.087010 0.064673
vn -0.998324 -0.051619 0.026155
vn -0.997763 -0.066596 0.005888
vn -0.994227 -0.100863 0.036608
vn -0.998324 -0.051619 0.026155
vn -0.998495 0.018634 -0.051582
vn -0.998437 -0.002097 -0.055859
vn -0.997763 -0.066596 0.005888
vn 0.000000 0.768110 0.640317
vn 0.000000 0.768110 0.640317
vn 0.000000 0.768110 0.640317
vn 0.000000 0.768110 0.640317
vn 0.000000 0.489065 -0.872247
vn 0.000000 0.489065 -0.872247
vn 0.000000 0.489065 -0.872247
vn 0.000000 0.489065 -0.872247
vn 0.000000 -0.768111 -0.640316
vn 0.000000 -0.768111 -0.640316
vn 0.000000 -0.768111 -0.640316
vn 0.000000 -0.768111 -0.640316
vn 0.000000 -0.769977 0.638072
vn 0.000000 -0.769977 0.638072
vn 0.000000 -0.769977 0.638072
vn 0.000000 -0.769977 0.638072
vn 1.000000 -0.000000 0.000000
vn 1.000000 -0.000000 0.000000
vn 1.000000 -0.000000 0.000000
vn 1.000000 -0.000000 0.000000
vn -1.000000 0.000000 -0.000000
vn -1.000000 0.000000 -0.000000
vn -1.000000 0.000000 -0.000000
vn -1.000000 0.000000 -0.000000
vn -0.000049 0.620016 -0.784589
vn -0.000049 0.620016 -0.784589
vn -0.000049 0.620016 -0.784589
vn -0.000049 0.620016 -0.784589
vn -0.000049 0.620016 -0.784589
vn -0.000049 0.620016 -0.784589
vn -0.000049 0.620016 -0.784589
vn -0.000049 0.620016 -0.784589
vn -0.994459 0.090604 0.053318
vn -0.998495 0.051583 0.018634
vn -0.992428 0.094379 0.078604
vn -0.992428 0.094379 0.078604
vn 0.000000 -0.598432 0.801174
vn 0.000000 -0.598432 0.801174
vn 0.000000 -0.598432 0.801174
vn 0.000000 -0.598432 0.801174
vn 0.992428 0.094379 0.078604
vn 0.992428 0.094379 0.078604
vn 0.998495 0.051583 0.018634
vn 0.994459 0.090604 0.053318
vn 0.000000 -0.649130 -0.760678
vn 0.000000 -0.782073 -0.623187
vn 0.000000 -0.782073 -0.623187
vn 0.000000 -0.649130 -0.760678
vn 0.000000 0.780564 0.625076
vn 0.000000 0.811951 0.583725
vn 0.000000 0.811951 0.583725
vn 0.000000 0.780564 0.625076
vn -0.993012 -0.092675 -0.073072
vn -0.998324 -0.026155 -0.051619
vn -0.994106 -0.064673 -0.087010
vn -0.993012 -0.092675 -0.073072
vn 0.000000 -0.598433 0.801173
vn 0.000000 -0.598433 0.801173
vn 0.000000 -0.598433 0.801173
vn 0.000000 -0.598433 0.801173
vn 0.998324 -0.026155 -0.051619
vn 0.993012 -0.092675 -0.073072
vn 0.993012 -0.092675 -0.073072
vn 0.994106 -0.064673 -0.087010
vn -1.000000 0.000000 0.000000
vn -0.998495 0.051583 0.018634
vn -0.998324 -0.026155 -0.051619
vn -1.000000 0.000000 0.000000
vn 0.000000 -0.598426 0.801178
vn 0.000000 -0.598426 0.801178
vn 0.000000 -0.598426 0.801178
vn 0.000000 -0.598426 0.801178
vn 0.998495 0.051583 0.018634
vn 1.000000 -0.000000 0.000000
vn 1.000000 -0.000000 0.000000
vn 0.998324 -0.026155 -0.051619
vn -0.998495 0.051583 0.018634
vn -0.994459 0.090604 0.053318
vn -0.995835 0.086769 0.027998
vn -0.998437 0.055859 -0.002097
vn 0.000000 0.811951 0.583725
vn 0.000000 0.811951 0.583725
vn 0.000000 0.841151 0.540801
vn 0.000000 0.841151 0.540801
vn 0.994459 0.090604 0.053318
vn 0.998495 0.051583 0.018634
vn 0.998437 0.055859 -0.002097
vn 0.995835 0.086769 0.027998
vn 0.998495 0.051583 0.018634
vn 0.998324 -0.026155 -0.051619
vn 0.997763 -0.005888 -0.066596
vn 0.998437 0.055859 -0.002097
vn 0.998324 -0.026155 -0.051619
vn 0.994106 -0.064673 -0.087010
vn 0.994227 -0.036607 -0.100862
vn 0.997763 -0.005888 -0.066596
vn 0.000000 -0.649130 -0.760678
vn 0.000000 -0.649130 -0.760678
vn 0.000000 -0.492444 -0.870344
vn 0.000000 -0.492444 -0.870344
vn -0.994106 -0.064673 -0.087010
vn -0.998324 -0.026155 -0.051619
vn -0.997763 -0.005888 -0.066596
vn -0.994227 -0.036607 -0.100862
vn -0.998324 -0.026155 -0.051619
vn -0.998495 0.051583 0.018634
vn -0.998437 0.055859 -0.002097
vn -0.997763 -0.005888 -0.066596
vn 0.000000 -0.640318 0.768110
vn 0.000000 -0.640318 0.768110
vn 0.000000 -0.640318 0.768110
vn 0.000000 -0.640318 0.768110
vn 0.000000 0.872248 0.489064
vn 0.000000 0.872248 0.489064
vn 0.000000 0.872248 0.489064
vn 0.000000 0.872248 0.489064
vn 0.000000 0.640316 -0.768112
vn 0.000000 0.640316 -0.768112
vn 0.000000 0.640316 -0.768112
vn 0.000000 0.640316 -0.768112
vn 0.000000 -0.638071 -0.769977
vn 0.000000 -0.638071 -0.769977
vn 0.000000 -0.638071 -0.769977
vn 0.000000 -0.638071 -0.769977
vn 1.000000 0.000000 0.000000
vn 1.000000 0.000000 0.000000
vn 1.000000 0.000000 0.000000
vn 1.000000 0.000000 0.000000
vn -1.000000 0.000000 -0.000000
vn -1.000000 0.000000 -0.000000
vn -1.000000 0.000000 -0.000000
vn -1.000000 0.000000 -0.000000
vn 0.000099 0.784590 0.620016
vn 0.000099 0.784590 0.620016
vn 0.000099 0.784590 0.620016
vn 0.000099 0.784590 0.620016
vn 0.000099 0.784590 0.620016
vn 0.000099 0.784590 0.620016
vn 0.000099 0.784590 0.620016
vn 0.000099 0.784590 0.620016
vn -0.994459 -0.053319 0.090604
vn -0.998495 -0.018634 0.051583
vn -0.992428 -0.078604 0.094379
vn -0.992428 -0.078604 0.094379
vn 0.000000 -0.801171 -0.598436
vn 0.000000 -0.801171 -0.598436
vn 0.000000 -0.801171 -0.598436
vn 0.000000 -0.801171 -0.598436
vn 0.992428 -0.078604 0.094379
vn 0.992428 -0.078604 0.094379
vn 0.998495 -0.018634 0.051583
vn 0.994459 -0.053319 0.090604
vn 0.000000 0.760677 -0.649130
vn 0.000000 0.623188 -0.782072
vn 0.000000 0.623188 -0.782072
vn 0.000000 0.760677 -0.649130
vn 0.000000 -0.625075 0.780564
vn 0.000000 -0.583726 0.811951
vn 0.000000 -0.583726 0.811951
vn 0.000000 -0.625075 0.780564
vn -0.993011 0.073072 -0.092676
vn -0.998324 0.051619 -0.026155
vn -0.994106 0.087010 -0.064673
vn -0.993011 0.073072 -0.092676
vn 0.000000 -0.801175 -0.598431
vn 0.000000 -0.801175 -0.598431
vn 0.000000 -0.801175 -0.598431
vn 0.000000 -0.801175 -0.598431
vn 0.998324 0.051619 -0.026155
vn 0.993012 0.073071 -0.092675
vn 0.993012 0.073071 -0.092675
vn 0.994106 0.087009 -0.064673
vn -1.000000 0.000000 -0.000000
vn -0.998495 -0.018634 0.051583
vn -0.998324 0.051619 -0.026155
vn -1.000000 0.000000 -0.000000
vn 0.000000 -0.801180 -0.598424
vn 0.000000 -0.801180 -0.598424
vn 0.000000 -0.801180 -0.598424
vn 0.000000 -0.801180 -0.598424
vn 0.998495 -0.018634 0.051583
vn 1.000000 0.000000 0.000000
vn 1.000000 0.000000 0.000000
vn 0.998324 0.051619 -0.026155
vn -0.998495 -0.018634 0.051583
vn -0.994459 -0.053319 0.090604
vn -0.995835 -0.027999 0.086770
vn -0.998437 0.002097 0.055859
vn 0.000000 -0.583726 0.811951
vn 0.000000 -0.583726 0.811951
vn 0.000000 -0.540803 0.841149
vn 0.000000 -0.540803 0.841149
vn 0.994459 -0.053319 0.090604
vn 0.998495 -0.018634 0.051583
vn 0.998436 0.002097 0.055859
vn 0.995835 -0.027999 0.086770
vn 0.998495 -0.018634 0.051583
vn 0.998324 0.051619 -0.026155
vn 0.997763 0.066596 -0.005888
vn 0.998436 0.002097 0.055859
vn 0.998324 0.051619 -0.026155
vn 0.994106 0.087009 -0.064673
vn 0.994227 0.100862 -0.036607
vn 0.997763 0.066596 -0.005888
vn 0.000000 0.760677 -0.649130
vn 0.000000 0.760677 -0.649130
vn 0.000000 0.870344 -0.492445
vn 0.000000 0.870344 -0.492445
vn -0.994106 0.087010 -0.064673
vn -0.998324 0.051619 -0.026155
vn -0.997763 0.066596 -0.005888
vn -0.994227 0.100862 -0.036607
vn -0.998324 0.051619 -0.026155
vn -0.998495 -0.018634 0.051583
vn -0.998437 0.002097 0.055859
vn -0.997763 0.066596 -0.005888
vn 0.000000 -0.768109 -0.640319
vn 0.000000 -0.768109 -0.640319
vn 0.000000 -0.768109 -0.640319
vn 0.000000 -0.768109 -0.640319
vn 0.000000 -0.489065 0.872247
vn 0.000000 -0.489065 0.872247
vn 0.000000 -0.489065 0.872247
vn 0.000000 -0.489065 0.872247
vn 0.000000 0.768111 0.640316
vn 0.000000 0.768111 0.640316
vn 0.000000 0.768111 0.640316
vn 0.000000 0.768111 0.640316
vn 0.000000 0.769977 -0.638072
vn 0.000000 0.769977 -0.638072
vn 0.000000 0.769977 -0.638072
vn 0.000000 0.769977 -0.638072
vn 1.000000 0.000000 0.000000
vn 1.000000 0.000000 0.000000
vn 1.000000 0.000000 0.000000
vn 1.000000 0.000000 0.000000
vn -1.000000 0.000000 0.000000
vn -1.000000 0.000000 0.000000
vn -1.000000 0.000000 0.000000
vn -1.000000 0.000000 0.000000
vn 0.000000 -0.620016 0.784589
vn 0.000000 -0.620016 0.784589
vn 0.000000 -0.620016 0.784589
vn 0.000000 -0.620016 0.784589
vn 0.000000 -0.620016 0.784589
vn 0.000000 -0.620016 0.784589
vn 0.000000 -0.620016 0.784589
vn 0.000000 -0.620016 0.784589
vn -0.994459 -0.090603 -0.053318
vn -0.998495 -0.051582 -0.018634
vn -0.992429 -0.094378 -0.078603
vn -0.992429 -0.094378 -0.078603
vn 0.000000 0.598428 -0.801177
vn 0.000000 0.598428 -0.801177
vn 0.000000 0.598428 -0.801177
vn 0.000000 0.598428 -0.801177
vn 0.992429 -0.094378 -0.078603
vn 0.992429 -0.094378 -0.078603
vn 0.998495 -0.051582 -0.018634
vn 0.994459 -0.090603 -0.053318
vn 0.000000 0.649130 0.760678
vn 0.000000 0.782073 0.623187
vn 0.000000 0.782073 0.623187
vn 0.000000 0.649130 0.760678
vn 0.000000 -0.780564 -0.625076
vn 0.000000 -0.811951 -0.583725
vn 0.000000 -0.811951 -0.583725
vn 0.000000 -0.780564 -0.625076
vn -0.993012 0.092675 0.073071
vn -0.998324 0.026154 0.051619
vn -0.994106 0.064672 0.087008
vn -0.993012 0.092675 0.073071
vn 0.000000 0.598432 -0.801174
vn 0.000000 0.598432 -0.801174
vn 0.000000 0.598432 -0.801174
vn 0.000000 0.598432 -0.801174
vn 0.998324 0.026154 0.051619
vn 0.993012 0.092675 0.073071
vn 0.993012 0.092675 0.073071
vn 0.994106 0.064672 0.087009
vn -1.000000 0.000000 -0.000000
vn -0.998495 -0.051582 -0.018634
vn -0.998324 0.026154 0.051619
vn -1.000000 0.000000 -0.000000
vn 0.000000 0.598428 -0.801176
vn 0.000000 0.598428 -0.801176
vn 0.000000 0.598428 -0.801176
vn 0.000000 0.598428 -0.801176
vn 0.998495 -0.051582 -0.018634
vn 1.000000 0.000000 0.000000
vn 1.000000 0.000000 0.000000
vn 0.998324 0.026154 0.051619
vn -0.998495 -0.051582 -0.018634
vn -0.994459 -0.090603 -0.053318
vn -0.995835 -0.086769 -0.027998
vn -0.998437 -0.055859 0.002097
vn 0.000000 -0.811951 -0.583725
vn 0.000000 -0.811951 -0.583725
vn 0.000000 -0.841150 -0.540801
vn 0.000000 -0.841150 -0.540801
vn 0.994459 -0.090603 -0.053318
vn 0.998495 -0.051582 -0.018634
vn 0.998437 -0.055859 0.002097
vn 0.995835 -0.086769 -0.027998
vn 0.998495 -0.051582 -0.018634
vn 0.998324 0.026154 0.051619
vn 0.997763 0.005888 0.066595
vn 0.998437 -0.055859 0.002097
vn 0.998324 0.026154 0.051619
vn 0.994106 0.064672 0.087009
vn 0.994227 0.036607 0.100861
vn 0.997763 0.005888 0.066595
vn 0.000000 0.649130 0.760678
vn 0.000000 0.649130 0.760678
vn 0.000000 0.492444 0.870344
vn 0.000000 0.492444 0.870344
vn -0.994106 0.064672 0.087008
vn -0.998324 0.026154 0.051619
vn -0.997763 0.005888 0.066595
vn -0.994227 0.036607 0.100860
vn -0.998324 0.026154 0.051619
vn -0.998495 -0.051582 -0.018634
vn -0.998437 -0.055859 0.002097
vn -0.997763 0.005888 0.066595
vn 0.000000 0.640317 -0.768111
vn 0.000000 0.640317 -0.768111
vn 0.000000 0.640317 -0.768111
vn 0.000000 0.640317 -0.768111
vn 0.000000 -0.872247 -0.489066
vn 0.000000 -0.872247 -0.489066
vn 0.000000 -0.872247 -0.489066
vn 0.000000 -0.872247 -0.489066
vn 0.000000 -0.640316 0.768112
vn 0.000000 -0.640316 0.768112
vn 0.000000 -0.640316 0.768112
vn 0.000000 -0.640316 0.768112
vn 0.000000 0.638071 0.769977
vn 0.000000 0.638071 0.769977
vn 0.000000 0.638071 0.769977
vn 0.000000 0.638071 0.769977
vn 1.000000 -0.000000 0.000000
vn 1.000000 -0.000000 0.000000
vn 1.000000 -0.000000 0.000000
vn 1.000000 -0.000000 0.000000
vn -1.000000 0.000000 0.000000
vn -1.000000 0.000000 0.000000
vn -1.000000 0.000000 0.000000
vn -1.000000 0.000000 0.000000
g Apache polySurface2 polySurface42 polySurface43 polySurface44 polySurface1
usemtl blinn2SG
f 18/1/1 17/2/2 19/3/3 20/4/4 21/5/5 22/6/6 23/7/7 24/8/8
f 3/9/9 14/10/10 15/11/11 5/12/12
f 5/12/13 15/11/14 16/13/15 7/14/16
f 7/14/17 16/13/18 13/15/19 1/16/20
f 2/17/21 8/18/22 6/19/23 4/20/24
f 7/14/25 1/16/26 3/9/27 5/12/28
f 11/21/29 10/22/30 4/20/31 6/19/32
f 12/23/33 11/21/34 6/19/35 8/18/36
f 9/24/37 12/23/38 8/18/39 2/17/40
f 15/11/41 14/10/42 10/22/43 11/21/44
f 16/13/45 15/11/46 11/21/47 12/23/48
f 13/15/49 16/13/50 12/23/51 9/24/52
f 14/10/53 3/9/54 17/2/55 18/1/56
f 3/9/57 1/16/58 19/3/59 17/2/60
f 1/16/61 13/15/62 20/4/63 19/3/64
f 13/15/65 9/24/66 21/5/67 20/4/68
f 9/24/69 2/17/70 22/6/71 21/5/72
f 2/17/73 4/20/74 23/7/75 22/6/76
f 4/20/77 10/22/78 24/8/79 23/7/80
f 10/22/81 14/10/82 18/1/83 24/8/84
f 25/25/85 26/26/86 28/27/87 27/28/88
f 27/28/89 28/27/90 30/29/91 29/30/92
f 29/30/93 30/29/94 32/31/95 31/32/96
f 31/32/97 32/31/98 26/26/99 25/25/100
f 26/26/101 32/31/102 30/29/103 28/27/104
f 31/32/105 25/25/106 27/28/107 29/30/108
f 50/33/109 49/34/110 51/35/111 52/36/112 53/37/113 54/38/114 55/39/115 56/40/116
f 35/41/117 46/42/118 47/43/119 37/44/120
f 37/44/121 47/43/122 48/45/123 39/46/124
f 39/46/125 48/45/126 45/47/127 33/48/128
f 34/49/129 40/50/130 38/51/131 36/52/132
f 39/46/133 33/48/134 35/41/135 37/44/136
f 43/53/137 42/54/138 36/52/139 38/51/140
f 44/55/141 43/53/142 38/51/143 40/50/144
f 41/56/145 44/55/146 40/50/147 34/49/148
f 47/43/149 46/42/150 42/54/151 43/53/152
f 48/45/153 47/43/154 43/53/155 44/55/156
f 45/47/157 48/45/158 44/55/159 41/56/160
f 46/42/161 35/41/162 49/34/163 50/33/164
f 35/41/165 33/48/166 51/35/167 49/34/168
f 33/48/169 45/47/170 52/36/171 51/35/172
f 45/47/173 41/56/174 53/37/175 52/36/176
f 41/56/177 34/49/178 54/38/179 53/37/180
f 34/49/181 36/52/182 55/39/183 54/38/184
f 36/52/185 42/54/186 56/40/187 55/39/188
f 42/54/189 46/42/190 50/33/191 56/40/192
f 57/57/193 58/58/194 60/59/195 59/60/196
f 59/60/197 60/59/198 62/61/199 61/62/200
f 61/62/201 62/61/202 64/63/203 63/64/204
f 63/64/205 64/63/206 58/58/207 57/57/208
f 58/58/209 64/63/210 62/61/211 60/59/212
f 63/64/213 57/57/214 59/60/215 61/62/216
f 82/65/217 81/66/218 83/67/219 84/68/220 85/69/221 86/70/222 87/71/223 88/72/224
f 67/73/225 78/74/226 79/75/227 69/76/228
f 69/76/229 79/75/230 80/77/231 71/78/232
f 71/78/233 80/77/234 77/79/235 65/80/236
f 66/81/237 72/82/238 70/83/239 68/84/240
f 71/78/241 65/80/242 67/73/243 69/76/244
f 75/85/245 74/86/246 68/84/247 70/83/248
f 76/87/249 75/85/250 70/83/251 72/82/252
f 73/88/253 76/87/254 72/82/255 66/81/256
f 79/75/257 78/74/258 74/86/259 75/85/260
f 80/77/261 79/75/262 75/85/263 76/87/264
f 77/79/265 80/77/266 76/87/267 73/88/268
f 78/74/269 67/73/270 81/66/271 82/65/272
f 67/73/273 65/80/274 83/67/275 81/66/276
f 65/80/277 77/79/278 84/68/279 83/67/280
f 77/79/281 73/88/282 85/69/283 84/68/284
f 73/88/285 66/81/286 86/70/287 85/69/288
f 66/81/289 68/84/290 87/71/291 86/70/292
f 68/84/293 74/86/294 88/72/295 87/71/296
f 74/86/297 78/74/298 82/65/299 88/72/300
f 89/89/301 90/90/302 92/91/303 91/92/304
f 91/92/305 92/91/306 94/93/307 93/94/308
f 93/94/309 94/93/310 96/95/311 95/96/312
f 95/96/313 96/95/314 90/90/315 89/89/316
f 90/90/317 96/95/318 94/93/319 92/91/320
f 95/96/321 89/89/322 91/92/323 93/94/324
f 114/97/325 113/98/326 115/99/327 116/100/328 117/101/329 118/102/330 119/103/331 120/104/332
f 99/105/333 110/106/334 111/107/335 101/108/336
f 101/108/337 111/107/338 112/109/339 103/110/340
f 103/110/341 112/109/342 109/111/343 97/112/344
f 98/113/345 104/114/346 102/115/347 100/116/348
f 103/110/349 97/112/350 99/105/351 101/108/352
f 107/117/353 106/118/354 100/116/355 102/115/356
f 108/119/357 107/117/358 102/115/359 104/114/360
f 105/120/361 108/119/362 104/114/363 98/113/364
f 111/107/365 110/106/366 106/118/367 107/117/368
f 112/109/369 111/107/370 107/117/371 108/119/372
f 109/111/373 112/109/374 108/119/375 105/120/376
f 110/106/377 99/105/378 113/98/379 114/97/380
f 99/105/381 97/112/382 115/99/383 113/98/384
f 97/112/385 109/111/386 116/100/387 115/99/388
f 109/111/389 105/120/390 117/101/391 116/100/392
f 105/120/393 98/113/394 118/102/395 117/101/396
f 98/113/397 100/116/398 119/103/399 118/102/400
f 100/116/401 106/118/402 120/104/403 119/103/404
f 106/118/405 110/106/406 114/97/407 120/104/408
f 121/121/409 122/122/410 124/123/411 123/124/412
f 123/124/413 124/123/414 126/125/415 125/126/416
f 125/126/417 126/125/418 128/127/419 127/128/420
f 127/128/421 128/127/422 122/122/423 121/121/424
f 122/122/425 128/127/426 126/125/427 124/123/428
f 127/128/429 121/121/430 123/124/431 125/126/432
